<svg width="256" height="256" viewBox="0 0 256 256" fill="none" xmlns="http://www.w3.org/2000/svg">
<rect width="256" height="256" fill="#7B43FF"/>
<path d="M83.3268 98.6406C65.4449 98.6412 29.3438 133.071 29.3438 133.071L49.3004 152.063C49.3004 152.063 65.4449 133.071 83.3268 133.071C101.209 133.071 110.318 156.361 125.501 156.361C140.684 156.361 149.793 133.071 167.675 133.071C185.557 133.071 204.553 152.063 204.553 152.063L226.045 133.071C226.045 133.071 185.557 98.6396 167.675 98.6406C149.793 98.6417 140.684 120.582 125.501 120.582C110.318 120.582 101.209 98.6401 83.3268 98.6406Z" fill="white"/>
<path d="M85.3405 144.279C67.4586 144.28 31.3574 178.709 31.3574 178.709L51.3141 197.702C51.3141 197.702 67.4586 178.709 85.3405 178.709C103.222 178.709 112.332 202 127.515 202C142.697 202 151.807 178.709 169.689 178.709C187.571 178.709 206.566 197.702 206.566 197.702L228.058 178.709C228.058 178.709 187.571 144.278 169.689 144.279C151.807 144.28 142.697 166.22 127.515 166.22C112.332 166.22 103.222 144.279 85.3405 144.279Z" fill="white"/>
<path d="M82.6106 53C64.5209 53.0006 28 87.8302 28 87.8302L48.1886 107.044C48.1886 107.044 64.5209 87.8302 82.6106 87.8302C100.7 87.8302 109.916 111.392 125.275 111.392C140.634 111.392 149.85 87.8302 167.94 87.8302C186.03 87.8302 205.246 107.044 205.246 107.044L226.987 87.8302C226.987 87.8302 186.03 52.999 167.94 53C149.85 53.001 140.634 75.1962 125.275 75.1962C109.916 75.1962 100.7 52.9994 82.6106 53Z" fill="white"/>
</svg>
