<svg width="7031" height="1024" viewBox="0 0 7031 1024" fill="none" xmlns="http://www.w3.org/2000/svg">
<g clip-path="url(#clip0_114_258)">
<rect y="-1" width="1089" height="1024" fill="#7B43FF"/>
<path d="M326.427 384.746C238.295 384.749 60.3672 554.437 60.3672 554.437L158.725 648.043C158.725 648.043 238.295 554.437 326.427 554.437C414.56 554.437 459.457 669.227 534.286 669.227C609.116 669.227 654.013 554.437 742.146 554.437C830.278 554.437 923.899 648.043 923.899 648.043L1029.82 554.437C1029.82 554.437 830.278 384.741 742.146 384.746C654.013 384.751 609.116 492.885 534.286 492.885C459.457 492.885 414.56 384.743 326.427 384.746Z" fill="white"/>
<path d="M325.47 614.99C237.655 614.993 60.3672 784.071 60.3672 784.071L158.371 877.34C158.371 877.34 237.655 784.071 325.47 784.071C413.286 784.071 458.022 898.448 532.582 898.448C607.142 898.448 651.878 784.071 739.694 784.071C827.509 784.071 920.793 877.34 920.793 877.34L1026.34 784.071C1026.34 784.071 827.509 614.985 739.694 614.99C651.878 614.995 607.142 722.74 532.582 722.74C458.022 722.74 413.286 614.988 325.47 614.99Z" fill="white"/>
<path d="M325.47 157.568C237.655 157.571 60.3672 326.649 60.3672 326.649L158.371 419.918C158.371 419.918 237.655 326.649 325.47 326.649C413.286 326.649 458.022 441.026 532.582 441.026C607.142 441.026 651.878 326.649 739.694 326.649C827.509 326.649 920.793 419.918 920.793 419.918L1026.34 326.649C1026.34 326.649 827.509 157.563 739.694 157.568C651.878 157.573 607.142 265.318 532.582 265.318C458.022 265.318 413.286 157.566 325.47 157.568Z" fill="white"/>
<path d="M1875 950.5C1874.17 950.5 1872.08 950.5 1868.75 950.5C1865.42 950.5 1852.5 958.833 1830 975.5L1542.5 223L1482.5 878C1480.83 891.333 1487.08 902.583 1501.25 911.75C1515.42 920.917 1535 925.5 1560 925.5H1612.5V963H1312.5V925.5H1352.5C1400.83 925.5 1426.67 907.167 1430 870.5L1492.5 180.5C1494.17 164.667 1488.33 151.75 1475 141.75C1462.5 130.917 1442.5 125.5 1415 125.5H1375V87.9999H1610L1877.5 793L2147.5 87.9999H2372.5V123H2322.5C2282.5 123 2262.5 138.417 2262.5 169.25C2262.5 171.75 2262.5 174.667 2262.5 178L2320 870.5C2321.67 889.667 2326.25 903.833 2333.75 913C2342.08 921.333 2356.67 925.5 2377.5 925.5H2427.5V963H2107.5V925.5H2150C2173.33 925.5 2189.17 921.75 2197.5 914.25C2205.83 906.75 2210 898.833 2210 890.5C2210 881.333 2210 874.667 2210 870.5L2155 215.5L1875 950.5ZM2742.17 980.5C2668.83 980.5 2607.58 953 2558.42 898C2509.25 843 2484.67 778.833 2484.67 705.5C2484.67 612.167 2519.67 531.75 2589.67 464.25C2660.5 396.75 2735.08 363 2813.42 363C2891.75 363 2954.67 390.917 3002.17 446.75C3050.5 501.75 3074.67 565.5 3074.67 638C3074.67 728.833 3040.92 808.833 2973.42 878C2906.75 946.333 2829.67 980.5 2742.17 980.5ZM2572.17 638C2572.17 715.5 2595.5 780.083 2642.17 831.75C2689.67 882.583 2742.58 908 2800.92 908C2860.08 908 2906.33 885.917 2939.67 841.75C2973 797.583 2989.67 752.167 2989.67 705.5C2989.67 634.667 2967.58 573 2923.42 520.5C2880.08 467.167 2827.17 440.5 2764.67 440.5C2702.17 440.5 2654.25 461.75 2620.92 504.25C2588.42 545.917 2572.17 590.5 2572.17 638ZM3517.57 885.5L3527.57 915.5C3465.07 958.833 3396.74 980.5 3322.57 980.5C3295.9 980.5 3272.99 970.917 3253.82 951.75C3234.65 932.583 3225.07 907.167 3225.07 875.5V433H3152.57V380.5H3180.07C3207.57 380.5 3232.99 363.833 3256.32 330.5C3280.49 297.167 3292.57 266.333 3292.57 238H3325.07V380.5H3495.07V433H3372.57C3340.9 433 3325.07 448 3325.07 478V835.5C3325.07 890.5 3345.07 918 3385.07 918C3430.07 918 3474.24 907.167 3517.57 885.5ZM3702.43 93C3721.6 93 3736.18 99.2499 3746.18 111.75C3757.01 124.25 3762.43 140.5 3762.43 160.5C3762.43 179.667 3754.51 195.917 3738.68 209.25C3722.85 221.75 3705.35 228 3686.18 228C3667.85 228 3653.26 221.75 3642.43 209.25C3632.43 196.75 3627.43 181.333 3627.43 163C3627.43 143.833 3635.35 127.583 3651.18 114.25C3667.01 100.083 3684.1 93 3702.43 93ZM3839.93 963H3587.43V928H3607.43C3629.93 928 3644.1 924.25 3649.93 916.75C3656.6 909.25 3659.93 897.167 3659.93 880.5V505.5C3659.93 489.667 3654.51 478.417 3643.68 471.75C3633.68 464.25 3614.93 460.5 3587.43 460.5V425.5C3604.1 425.5 3629.1 419.667 3662.43 408C3696.6 395.5 3722.43 383.833 3739.93 373L3762.43 368V873C3762.43 886.333 3762.85 895.917 3763.68 901.75C3765.35 907.583 3770.35 913.417 3778.68 919.25C3787.01 925.083 3799.93 928 3817.43 928H3839.93V963ZM4177.71 980.5C4104.38 980.5 4043.13 953 3993.96 898C3944.8 843 3920.21 778.833 3920.21 705.5C3920.21 612.167 3955.21 531.75 4025.21 464.25C4096.05 396.75 4170.63 363 4248.96 363C4327.3 363 4390.21 390.917 4437.71 446.75C4486.05 501.75 4510.21 565.5 4510.21 638C4510.21 728.833 4476.46 808.833 4408.96 878C4342.3 946.333 4265.21 980.5 4177.71 980.5ZM4007.71 638C4007.71 715.5 4031.05 780.083 4077.71 831.75C4125.21 882.583 4178.13 908 4236.46 908C4295.63 908 4341.88 885.917 4375.21 841.75C4408.55 797.583 4425.21 752.167 4425.21 705.5C4425.21 634.667 4403.13 573 4358.96 520.5C4315.63 467.167 4262.71 440.5 4200.21 440.5C4137.71 440.5 4089.8 461.75 4056.46 504.25C4023.96 545.917 4007.71 590.5 4007.71 638ZM5233.12 963H5018.12V928H5023.12C5032.28 928 5039.78 923.417 5045.62 914.25C5052.28 905.083 5055.62 893.833 5055.62 880.5V563C5055.62 525.5 5046.45 497.167 5028.12 478C5010.62 458 4985.62 448 4953.12 448C4906.45 448 4865.2 473 4829.37 523C4793.53 573 4775.62 610.5 4775.62 635.5V873C4775.62 886.333 4776.03 895.917 4776.87 901.75C4778.53 907.583 4783.53 913.417 4791.87 919.25C4800.2 925.083 4813.12 928 4830.62 928H4853.12V963H4600.62V928H4620.62C4643.12 928 4657.28 924.25 4663.12 916.75C4669.78 909.25 4673.12 897.167 4673.12 880.5V505.5C4673.12 489.667 4667.7 478.417 4656.87 471.75C4646.87 464.25 4628.12 460.5 4600.62 460.5V425.5C4617.28 425.5 4642.28 419.667 4675.62 408C4709.78 395.5 4735.62 383.833 4753.12 373L4775.62 368V528C4794.78 475.5 4824.37 435.083 4864.37 406.75C4904.37 377.583 4953.12 363 5010.62 363C5040.62 363 5066.03 369.667 5086.87 383C5107.7 396.333 5122.7 413.417 5131.87 434.25C5147.7 470.083 5155.62 505.5 5155.62 540.5V878C5155.62 889.667 5156.45 898.417 5158.12 904.25C5162.28 920.083 5179.78 928 5210.62 928H5233.12V963ZM5730.54 980.5L5710.54 988L5403.04 180.5C5395.54 162.167 5386.79 148.417 5376.79 139.25C5367.62 130.083 5353.87 125.5 5335.54 125.5H5293.04V87.9999H5610.54V125.5H5568.04C5533.04 125.5 5515.54 136.333 5515.54 158C5515.54 168 5519.7 183 5528.04 203L5770.54 833L6020.54 183L6033.04 145.5C6033.04 137.167 6028.04 131.75 6018.04 129.25C6008.04 126.75 5988.04 125.5 5958.04 125.5H5930.54V87.9999H6178.04V125.5H6163.04C6134.7 125.5 6113.87 130.083 6100.54 139.25C6088.04 148.417 6078.04 164.667 6070.54 188L5795.54 903C5765.54 924.667 5743.87 950.5 5730.54 980.5ZM6977.63 963H6657.63V928H6697.63C6734.29 928 6752.63 916.333 6752.63 893C6752.63 889.667 6748.46 875.5 6740.13 850.5L6655.13 628H6340.13L6257.63 840.5C6257.63 842.167 6254.71 852.583 6248.88 871.75C6243.04 890.083 6240.13 903 6240.13 910.5C6240.13 917.167 6244.71 921.75 6253.88 924.25C6263.04 926.75 6282.63 928 6312.63 928H6332.63V963H6087.63V928H6105.13C6132.63 928 6152.63 923.417 6165.13 914.25C6177.63 904.25 6188.46 888 6197.63 865.5L6472.63 148C6476.79 147.167 6484.29 141.333 6495.13 130.5C6505.96 118.833 6515.96 107.167 6525.13 95.5C6534.29 83 6538.88 75.9166 6538.88 74.25C6538.88 72.5833 6538.46 71.3333 6537.63 70.4999L6555.13 65.4999L6862.63 870.5C6871.79 889.667 6880.96 904.25 6890.13 914.25C6900.13 923.417 6914.29 928 6932.63 928H6977.63V963ZM6632.63 575.5L6497.63 218L6360.13 575.5H6632.63Z" fill="black"/>
</g>
<defs>
<clipPath id="clip0_114_258">
<rect width="7031" height="1024" fill="white"/>
</clipPath>
</defs>
</svg>
